PathFileType	4	(X/Y/Z)	Patient4_TMGait_0pt2_02_right_13.trc.trc
DataRate	CameraRate	NumFrames	NumMarkers	Units	OrigDataRate	OrigDataStartFrame	OrigNumFrames
44.585987261147	44.585987261147	4	33	mm	44.585987261147	18	       141
Frame#	Time	R.Midfoot.Superior			Sacral			L.Shoulder			Chest			R.Shoulder			Neck			R.ASIS			L.ASIS			R.Thigh.Superior			R.Thigh.Lateral			R.Thigh.Inferior			R.Patella			L.Thigh.Superior			L.Thigh.Lateral			L.Thigh.Inferior			L.Patella			L.Shank.Superior			L.Shank.Lateral			L.Shank.Inferior			R.Shank.Superior			R.Shank.Lateral			R.Shank.Inferior			R.Heel			R.Midfoot.Lateral			R.Toe			L.Heel			L.Midfoot.Lateral			L.Midfoot.Superior			L.Toe			L.Elbow			L.Wrist			R.Elbow			R.Wrist			
		X1	Y1	Z1	X2	Y2	Z2	X3	Y3	Z3	X4	Y4	Z4	X5	Y5	Z5	X6	Y6	Z6	X7	Y7	Z7	X8	Y8	Z8	X9	Y9	Z9	X10	Y10	Z10	X11	Y11	Z11	X12	Y12	Z12	X13	Y13	Z13	X14	Y14	Z14	X15	Y15	Z15	X16	Y16	Z16	X17	Y17	Z17	X18	Y18	Z18	X19	Y19	Z19	X20	Y20	Z20	X21	Y21	Z21	X22	Y22	Z22	X23	Y23	Z23	X24	Y24	Z24	X25	Y25	Z25	X26	Y26	Z26	X27	Y27	Z27	X28	Y28	Z28	X29	Y29	Z29	X30	Y30	Z30	X31	Y31	Z31	X32	Y32	Z32	X33	Y33	Z33	

18	29.051285714286	914.903847001011	126.642019667973	570.352205010749	602.369013093368	981.864777906999	351.206996673291	821.639384252140	1422.727776805341	210.162491507425	896.613211098962	1336.962890534343	377.832654454056	794.203874648315	1404.081872917973	542.536187232532	785.361842693108	1471.297027432063	371.123556309791	824.993435250503	923.641455624180	486.856727303519	831.891387445808	942.368755487819	212.849324180905	918.408999212004	765.698485638215	454.682020719330	891.419623550445	647.624352879475	537.700421113331	977.161337480643	611.275943049171	452.796351245601	1014.310036547053	512.870685190195	480.980764542450	889.602860354780	735.294242255089	267.874113839440	820.804559575980	603.942921854644	211.950522087184	898.625629911121	539.007723856253	297.187963894920	901.737201972948	462.708761055118	310.277507832327	856.379094175939	389.452857614053	299.431434667347	750.816122962404	293.714573672970	239.568353809049	764.250543944794	178.501409906130	317.561787893820	965.006450599312	426.825454914287	503.884257347578	872.391323520769	355.426846701601	579.115137623371	897.861240519581	245.104018315241	540.885653947468	736.954885787179	108.791356200928	533.820304415410	817.095808948532	85.020525399284	607.665287296716	1018.311973355442	54.058194039439	598.582819259608	606.538900612636	39.355996748697	344.034416197471	686.311824529375	35.756505107929	269.475736365765	769.250250576482	94.303253453536	304.251634851520	898.102159285703	39.613965474916	282.709352027557	944.378345326954	1134.410170983491	35.878960578512	1161.349034206435	985.764453937581	37.716853103826	659.152222645844	1073.336978793542	624.028451871511	646.320465431468	810.707204896363	628.002139465821	
19	29.073714285714	943.981975772037	119.875932152618	573.597322849702	604.361494168852	984.074892980720	350.490328061132	827.104651648578	1424.992799856011	213.843837976902	898.199600461543	1339.163064421963	382.980438288794	792.383224970939	1406.959357799303	545.133842601552	787.177927504169	1473.161897268302	373.826563183783	824.683090640807	925.030880070169	489.825633202550	835.579625678971	944.285795070681	215.880325371304	916.442236649582	766.166701660452	459.183107296571	887.173183896845	648.256344001197	542.154217373847	973.445567432589	611.479102316507	458.534519744003	1011.069262136180	516.112736401505	486.556392449698	889.183459985273	734.940690965317	270.259094061182	818.705728808540	604.994107912304	212.661478651012	894.401728135360	538.537489122560	298.198060131357	896.304051063023	462.654513401358	310.984390801180	851.081395047803	389.840165796557	299.731347332511	745.951749224876	293.942476273194	239.509919016285	759.362532743263	178.723164170703	317.476613263043	968.093728825703	428.283788033560	508.854644042346	882.124720503137	348.492793260176	584.784216418539	916.431252242996	239.986714433786	545.338328744346	765.498316472000	91.412260100067	538.342922621532	848.351554807914	70.928270485451	611.002629893067	1053.132785223966	52.796682606796	599.370641350523	601.991343192913	39.372095239343	343.863432166726	681.758869683524	35.720945555904	269.374031407172	764.681431774847	94.318033986556	304.126666092327	893.549948646973	39.605721159539	282.700373350587	960.212965986013	1146.222256874669	36.329108063097	1187.167893399430	1012.792010297917	40.287326948696	639.231507438977	1085.559444319896	622.582151270033	607.481522931605	823.433263680388	623.840147759356	
20	29.096142857143	968.506530285744	114.471093321094	576.447074911986	606.594497884690	986.314541653419	350.255735641351	832.621598877867	1427.040004206716	217.643050981494	899.807510858773	1341.492176942281	388.304561066799	790.823016954891	1410.496972424578	547.698767055632	789.020729021241	1475.083382076146	376.448916914189	824.456937325341	926.340246037963	493.337688489362	839.506386558162	946.217483740367	219.556225053327	914.501042657568	766.349703431275	464.338870563475	882.611889251084	648.428578735799	546.893649688075	969.675014996439	611.279598203179	464.817133997935	1007.169942868132	518.576888014451	492.415066053085	888.843115818285	734.569312045539	273.007590417031	816.566718225080	606.157611432622	213.661444793399	890.066801497536	538.099634862441	299.362405605897	890.706172236710	462.664287487636	311.796923596124	845.656764134799	390.305189710303	300.141515992552	741.017219572373	294.226442789697	239.498155599884	754.442393547091	178.986473155949	317.419901757350	969.873007197999	429.422958168085	513.859157647075	890.078785198074	342.536067743649	590.225738571677	931.912767569828	236.142828558371	549.468681348134	790.063431464759	78.262372753095	541.949397514218	874.731893546693	60.042213804578	613.696158429079	1081.761923539205	51.561756223083	600.198237710523	597.434882545425	39.387703130603	343.688906729336	677.198796924921	35.675963905719	269.274197663043	760.107701534221	94.338441448716	303.996161992813	888.990868164546	39.599750452157	282.698447791895	975.285800616500	1157.733954862267	37.564163460704	1210.626652015194	1039.559661076565	43.730747499540	621.362736979227	1098.791164659602	621.052416987236	574.132313895238	838.447444466322	619.362383387626	
21	29.118571428571	987.779746078866	110.316892774087	578.730400117102	609.030220192531	988.436741463850	350.550643155828	838.138808936237	1428.752365923404	221.556932038457	901.435221763280	1343.800974859629	393.772632768123	789.562666615597	1414.458211741533	550.267106439853	790.899697243901	1476.935661958650	379.025139309502	824.337961962223	927.477426067086	497.345387598254	843.615156309547	948.049425800372	223.831756443710	912.782989299941	766.273567185796	469.959658986756	878.081763814234	648.121083100277	551.659187379229	966.153198142578	610.724647560760	471.293632128954	1002.957972075681	520.202051686640	498.202273869993	888.642659497919	734.130856870674	276.096582466011	814.478705475377	607.360209158598	214.967036822051	885.753829980033	537.652827437807	300.707201956496	885.102029455829	462.676453204146	312.751165920926	840.233910209933	390.787826783246	300.688093714035	736.087787941630	294.551906407813	239.562034589018	749.532259001401	179.262065138738	317.409197478200	970.496009022891	430.133510818048	518.615886704022	896.072413186093	337.577925157635	595.120299059487	943.916634415116	233.381973012615	553.025290307967	809.790906751111	69.113322009466	544.426273607447	895.418084341510	52.269855019155	615.629845648498	1103.607589401501	50.238264645707	601.109614161618	592.869214655017	39.399859961503	343.518122417623	672.633960412908	35.620378427123	269.179094969682	755.531570924208	94.361357881921	303.866994152224	884.427416097115	39.597552696706	282.703182136728	989.508887066424	1168.631082004352	39.621501895560	1231.750638960453	1065.600531457222	48.012027917138	605.842387160705	1112.311034272388	619.548436020025	546.390413152062	854.423941725718	614.889389190175	
